Coordinates
version=1
nRows=21
nColumns=12
inDegrees=yes

Units are S.I. units (second, meters, Newtons, ...)
Angles are in degrees

endheader
time	SC_y	SC_z	SC_x	AC_y	AC_z	AC_x	GH_y	GH_z	GH_yy	EL_x	PS_y
       0.0              -23.74          18.52          30.54          66.11         -18.37          18.27         -31.93          13.88         -138.5          97.63          157.5
  0.005238              -23.74          18.52          30.54          66.11         -18.36          18.27          -31.9          13.88         -138.4          97.64          157.5
   0.01048              -23.75          18.51          30.54           66.1         -18.36          18.27         -31.87          13.88         -138.4          97.64          157.5
   0.01572              -23.75          18.51          30.54           66.1         -18.36          18.27         -31.84          13.88         -138.4          97.65          157.5
   0.02095              -23.75          18.51          30.54           66.1         -18.35          18.26         -31.81          13.88         -138.3          97.65          157.5
   0.02619              -23.75          18.51          30.54           66.1         -18.35          18.26         -31.78          13.88         -138.3          97.66          157.5
   0.03143              -23.76          18.51          30.53           66.1         -18.34          18.26         -31.74          13.88         -138.3          97.66          157.4
   0.03667              -23.76          18.51          30.53           66.1         -18.34          18.26         -31.71          13.88         -138.2          97.67          157.4
   0.04191              -23.76           18.5          30.53           66.1         -18.33          18.26         -31.67          13.89         -138.2          97.68          157.4
   0.04715              -23.77           18.5          30.53          66.09         -18.33          18.25         -31.62          13.89         -138.1          97.68          157.4
   0.05238              -23.77           18.5          30.53          66.09         -18.32          18.25         -31.58          13.89         -138.1          97.69          157.4
   0.05762              -23.77           18.5          30.52          66.09         -18.32          18.25         -31.53          13.89         -138.0           97.7          157.4
   0.06286              -23.78           18.5          30.52          66.09         -18.31          18.24         -31.47          13.89         -137.9          97.71          157.4
    0.0681              -23.78          18.49          30.52          66.09          -18.3          18.24         -31.42          13.89         -137.9          97.72          157.4
   0.07334              -23.79          18.49          30.51          66.08          -18.3          18.24         -31.35           13.9         -137.8          97.73          157.3
   0.07858              -23.79          18.49          30.51          66.08         -18.29          18.23         -31.28           13.9         -137.7          97.74          157.3
   0.08381               -23.8          18.48          30.51          66.08         -18.28          18.23         -31.21           13.9         -137.6          97.75          157.3
   0.08905               -23.8          18.48           30.5          66.07         -18.27          18.22         -31.13           13.9         -137.5          97.77          157.3
   0.09429              -23.81          18.48           30.5          66.07         -18.26          18.22         -31.04          13.91         -137.4          97.78          157.2
   0.09953              -23.82          18.47          30.49          66.07         -18.25          18.21         -30.94          13.91         -137.3           97.8          157.2
    0.1048              -23.83          18.47          30.49          66.06         -18.23           18.2         -30.84          13.91         -137.2          97.82          157.2
